<?xml version="1.0" encoding="UTF-8"?>
<svg width="124px" height="124px" viewBox="0 0 124 124" version="1.1" xmlns="http://www.w3.org/2000/svg" xmlns:xlink="http://www.w3.org/1999/xlink">
    <!-- Generator: Sketch 60.1 (88133) - https://sketch.com -->
    <title>黑框</title>
    <desc>Created with Sketch.</desc>
    <g id="页面-1" stroke="none" stroke-width="1" fill="none" fill-rule="evenodd">
        <g id="黑框" transform="translate(2.000000, 2.000000)">
            <rect id="矩形" stroke="#000000" stroke-width="4" x="0" y="0" width="120" height="120"></rect>
            <path d="M105.598117,22.3443511 L105.598117,41.9378617 C104.391734,41.9704149 103.210245,42.1864787 102.089394,42.5614787 C98.2506702,43.8288191 95.1086489,46.942117 93.9877979,51.1395638 L91.3021596,61.1563723 L87.7937553,74.2456277 C83.9630106,88.545734 71.0285426,97.9756277 56.8956702,97.9756277 C54.1532234,97.9756277 51.3696064,97.6210532 48.5946064,96.8793511 L53.6639681,77.9582872 C60.2901383,79.7349894 67.0998191,75.8024362 68.8765213,69.176266 L71.5621596,59.1594574 L75.066734,46.0702021 C77.4060957,37.3449894 83.1313085,30.4293511 90.4506702,26.3665851 C95.0227979,23.8277553 100.218862,22.4056277 105.598117,22.3443511 Z M63.3792766,22.3401702 C66.1217234,22.3401702 68.9091702,22.6947447 71.6844894,23.4405957 L66.6148085,42.3575106 C59.9886383,40.5808085 53.1792766,44.5133617 51.4064043,51.1395319 L48.720766,61.1563404 L45.2120426,74.2455957 C42.8608723,83.0154894 37.0861915,89.9557021 29.7100213,94.0104894 C25.1662979,96.5084681 20.015234,97.9101702 14.6809787,97.9714468 L14.6809787,78.3779362 C15.9074681,78.341234 17.1017234,78.1254894 18.2385319,77.7421915 C22.053,76.4627234 25.1745957,73.3574043 26.2951277,69.176234 L28.976617,59.1594255 L32.4853404,46.0701702 C36.3160851,31.770383 49.2464043,22.3401702 63.3792766,22.3401702 Z" id="形状结合" fill="#000000"></path>
        </g>
    </g>
</svg>