<?xml version="1.0" encoding="utf-8"?>
<!-- Generator: Adobe Illustrator 22.1.0, SVG Export Plug-In . SVG Version: 6.00 Build 0)  -->
<svg version="1.1" id="图层_1" xmlns="http://www.w3.org/2000/svg" xmlns:xlink="http://www.w3.org/1999/xlink" x="0px" y="0px"
	 viewBox="0 0 1099 120" style="enable-background:new 0 0 1099 120;" xml:space="preserve">
<style type="text/css">
	.st0{fill:#FFFFFF;}
	.st1{fill:#F3B632;}
</style>
<title>白-横版</title>
<desc>Created with Sketch.</desc>
<g id="页面-1">
	<g id="白-横版">
		<rect id="矩形" class="st0" width="120" height="120"/>
		<path id="形状结合" d="M75.1,46.1c2.3-8.7,8.1-15.6,15.4-19.7c4.6-2.5,9.8-4,15.1-4v19.6c-1.2,0-2.4,0.2-3.5,0.6
			c-3.8,1.3-7,4.4-8.1,8.6l-2.7,10l-3.5,13.1C84,88.5,71,98,56.9,98c-2.7,0-5.5-0.4-8.3-1.1L53.7,78c6.6,1.8,13.4-2.2,15.2-8.8
			l2.7-10L75.1,46.1 M63.4,22.3c2.7,0,5.5,0.4,8.3,1.1l-5.1,18.9c-6.6-1.8-13.4,2.2-15.2,8.8l-2.7,10l-3.5,13.1
			C42.9,83,37.1,90,29.7,94c-4.5,2.5-9.7,3.9-15,4V78.4c1.2,0,2.4-0.3,3.6-0.6c3.8-1.3,6.9-4.4,8.1-8.6l2.7-10l3.5-13.1
			C36.3,31.8,49.2,22.3,63.4,22.3z"/>
		<g id="编组-2备份-2" transform="translate(160.000000, 9.000000)">
			<path id="形状结合_1_" class="st0" d="M387.1,0v43.1l8.5-11.9l21.7-30.4h28l-35.6,50.1l35.5,49.9h-28l-21.5-30.2l-8.5-11.9
				v42.2h-23.9V0H387.1z M924.8,0.4v15.2h14.2v20.5h-14.2v64.3h-23.9V36.1h-12.2V15.6h12.2V0.4H924.8z M34.5,0.4
				c6.2,0,12,1.4,17.4,4.1C57.3,7.1,62,11,65.8,16.1L51,30.9C45,24.9,39.5,22,34.6,22c-2.7,0-4.8,0.6-6.3,1.7
				c-1.5,1.1-2.3,2.6-2.3,4.2c0,1.3,0.5,2.5,1.4,3.5c1,1.1,3.3,2.6,7.1,4.4l8.7,4.4c9.2,4.5,15.5,9.2,19,13.9
				c3.4,4.7,5.2,10.3,5.2,16.6c0,8.5-3.1,15.5-9.3,21.2c-6.2,5.7-14.5,8.5-25,8.5c-13.9,0-25-5.4-33.2-16.3l14.7-16
				c2.8,3.3,6.1,5.9,9.8,7.9c3.8,2,7.1,3,10,3c3.1,0,5.7-0.8,7.6-2.3c1.9-1.5,2.9-3.3,2.9-5.2c0-3.7-3.5-7.3-10.4-10.8l-8-4
				C11.2,49,3.5,39.3,3.5,27.7c0-7.5,2.9-13.9,8.7-19.3C18,3,25.4,0.4,34.5,0.4z M186.8,0.4c5.7,0,11.1,1.1,16.1,3.2
				c5,2.2,9.6,5.4,13.9,9.7V2.8h23.9V98h-23.9V87.9c-4.7,4.4-9.3,7.6-14,9.6c-4.7,2-9.8,2.9-15.2,2.9c-12.3,0-22.9-4.8-31.9-14.3
				c-9-9.5-13.5-21.4-13.5-35.5c0-14.7,4.3-26.7,13-36.1C163.9,5.1,174.4,0.4,186.8,0.4z M307,0.4c9.4,0,17.9,1.9,25.4,5.6
				c7.5,3.8,13.7,9.1,18.5,16L331,33c-3.7-3.9-7.4-6.6-11.1-8.1c-3.6-1.5-7.9-2.3-12.8-2.3c-8.9,0-16.2,2.7-21.7,8
				c-5.5,5.3-8.3,12.2-8.3,20.5c0,8.1,2.7,14.7,8,19.8c5.3,5.1,12.3,7.7,20.9,7.7c10.7,0,19-3.6,25-10.9l18.8,12.9
				c-10.2,13.3-24.6,19.9-43.2,19.9c-16.7,0-29.8-5-39.3-14.9c-9.5-9.9-14.2-21.5-14.2-34.8c0-9.2,2.3-17.7,6.9-25.4
				c4.6-7.8,11-13.8,19.3-18.3C287.6,2.6,296.8,0.4,307,0.4z M488.7,0.4c6.2,0,12,1.4,17.4,4.1c5.5,2.7,10.1,6.6,13.9,11.7
				l-14.8,14.8c-6-5.9-11.5-8.9-16.4-8.9c-2.7,0-4.8,0.6-6.3,1.7c-1.5,1.1-2.3,2.6-2.3,4.2c0,1.3,0.5,2.5,1.4,3.5
				c1,1.1,3.3,2.6,7.1,4.4l8.7,4.4c9.2,4.5,15.5,9.2,19,13.9c3.4,4.7,5.2,10.3,5.2,16.6c0,8.5-3.1,15.5-9.3,21.2
				c-6.2,5.7-14.5,8.5-25,8.5c-13.9,0-25-5.4-33.2-16.3l14.7-16c2.8,3.3,6.1,5.9,9.8,7.9c3.8,2,7.1,3,10,3c3.1,0,5.7-0.8,7.6-2.3
				c1.9-1.5,2.9-3.3,2.9-5.2c0-3.7-3.5-7.3-10.4-10.8l-8-4c-15.4-7.8-23.1-17.5-23.1-29.1c0-7.5,2.9-13.9,8.7-19.3
				C472.2,3,479.6,0.4,488.7,0.4z M714,0.4c15,0,27.2,4.8,36.6,14.4c9.4,9.6,14.1,22.3,14.1,38l0,0l-0.1,4.5h-55.7V38.5h31.8
				c-1.6-5.3-4.7-9.6-9.3-12.9c-4.6-3.3-10-5-16.2-5c-6.7,0-12.5,1.9-17.5,5.6c-3.2,2.3-6.1,6.4-8.8,12.3c0,0-0.8,2.4-1.1,3.4
				c-1.3,4.8-1.2,10.1,0.1,15.8c1.2,6.6,4.1,11.8,8.8,15.7c4.8,4,10.9,6,18.4,6c8.9,0,16.6-3.1,23-9.4l0,0l20.1,9.4
				c-5,7.1-11,12.4-18,15.8c-7,3.4-15.3,5.1-24.9,5.1c-14.9,0-27.1-4.7-36.5-14.1c-9.4-9.4-14.1-21.2-14.1-35.4
				c0-14.5,4.7-26.6,14-36.2C688.2,5.2,699.9,0.4,714,0.4z M825.8,0.4c15,0,27.2,4.8,36.6,14.4c9.4,9.6,14.1,22.3,14.1,38l0,0
				l-0.1,4.5h-55.7V38.5h31.8c-1.6-5.3-4.7-9.6-9.3-12.9c-4.6-3.3-10-5-16.2-5c-6.7,0-12.5,1.9-17.5,5.6c-3.2,2.3-6.1,6.4-8.8,12.3
				c0,0-0.8,2.4-1.1,3.4c-1.3,4.8-1.2,10.1,0.1,15.8c1.2,6.6,4.1,11.8,8.8,15.7c4.8,4,10.9,6,18.4,6c8.9,0,16.6-3.1,23-9.4l0,0
				l20.1,9.4c-5,7.1-11,12.4-18,15.8c-7,3.4-15.3,5.1-24.9,5.1c-14.9,0-27.1-4.7-36.5-14.1c-9.4-9.4-14.1-21.2-14.1-35.4
				c0-14.5,4.7-26.6,14-36.2C800,5.2,811.7,0.4,825.8,0.4z M553.4,2.8l20.2,53.5L582,33L570.6,2.8h22.7l20.2,53.5l19.2-53.5h23.5
				L621.4,98h-15.1l-12.6-33.5L581.6,98h-15.1L530.7,2.8H553.4z M191.7,22.4c-7.4,0-13.5,2.6-18.4,7.8c-4.9,5.2-7.3,11.9-7.3,20.1
				c0,8.2,2.5,15,7.5,20.3c5,5.3,11.1,8,18.3,8c7.5,0,13.7-2.6,18.6-7.8c4.9-5.2,7.4-12.1,7.4-20.5c0-8.3-2.5-15-7.4-20.1
				C205.5,25,199.2,22.4,191.7,22.4z M115.9,1.3v15.2H130v20.5h-14.2l0,38H92v-38H79.8l0-20.7L92,16.5V1.3H115.9z"/>
			<path id="Fill-23" class="st1" d="M92,75.1v24.4c13.2-0.4,23.9-11.1,23.9-24.4H92z"/>
		</g>
	</g>
</g>
</svg>
