<?xml version="1.0" encoding="UTF-8"?>
<svg width="1099px" height="120px" viewBox="0 0 1099 120" version="1.1" xmlns="http://www.w3.org/2000/svg" xmlns:xlink="http://www.w3.org/1999/xlink">
    <!-- Generator: Sketch 60.1 (88133) - https://sketch.com -->
    <title>黑-横版</title>
    <desc>Created with Sketch.</desc>
    <g id="页面-1" stroke="none" stroke-width="1" fill="none" fill-rule="evenodd">
        <g id="黑-横版">
            <rect id="矩形" fill="#000000" x="0" y="0" width="120" height="120"></rect>
            <path d="M105.598117,22.3443511 L105.598117,41.9378617 C104.391734,41.9704149 103.210245,42.1864787 102.089394,42.5614787 C98.2506702,43.8288191 95.1086489,46.942117 93.9877979,51.1395638 L91.3021596,61.1563723 L87.7937553,74.2456277 C83.9630106,88.545734 71.0285426,97.9756277 56.8956702,97.9756277 C54.1532234,97.9756277 51.3696064,97.6210532 48.5946064,96.8793511 L53.6639681,77.9582872 C60.2901383,79.7349894 67.0998191,75.8024362 68.8765213,69.176266 L71.5621596,59.1594574 L75.066734,46.0702021 C77.4060957,37.3449894 83.1313085,30.4293511 90.4506702,26.3665851 C95.0227979,23.8277553 100.218862,22.4056277 105.598117,22.3443511 Z M63.3792766,22.3401702 C66.1217234,22.3401702 68.9091702,22.6947447 71.6844894,23.4405957 L66.6148085,42.3575106 C59.9886383,40.5808085 53.1792766,44.5133617 51.4064043,51.1395319 L48.720766,61.1563404 L45.2120426,74.2455957 C42.8608723,83.0154894 37.0861915,89.9557021 29.7100213,94.0104894 C25.1662979,96.5084681 20.015234,97.9101702 14.6809787,97.9714468 L14.6809787,78.3779362 C15.9074681,78.341234 17.1017234,78.1254894 18.2385319,77.7421915 C22.053,76.4627234 25.1745957,73.3574043 26.2951277,69.176234 L28.976617,59.1594255 L32.4853404,46.0701702 C36.3160851,31.770383 49.2464043,22.3401702 63.3792766,22.3401702 Z" id="形状结合" fill="#FFFFFF"></path>
            <g id="编组-2" transform="translate(159.999600, 9.500100)">
                <path d="M387.05145,1.42108547e-14 L387.05145,43.148 L395.54545,31.216 L417.21245,0.7845 L445.17645,0.7845 L409.52895,50.8585 L445.03995,100.735 L417.07595,100.735 L395.54545,70.496 L387.05145,58.567 L387.05145,100.773 L363.17945,100.773 L363.17945,1.42108547e-14 L387.05145,1.42108547e-14 Z M924.7623,0.3614 L924.7623,15.5969 L938.9278,15.5969 L938.9278,36.1454 L924.7623,36.1454 L924.7623,100.4114 L900.8903,100.4114 L900.8903,36.1454 L888.6483,36.1454 L888.6483,15.5969 L900.8903,15.5969 L900.8903,0.3614 L924.7623,0.3614 Z M34.453,0.36875 C40.6315,0.36875 46.4465,1.72425 51.898,4.43475 C57.3485,7.14575 61.9675,11.03675 65.7575,16.10825 L50.98,30.88675 C44.9755,24.94025 39.5245,21.96725 34.628,21.96725 C31.946,21.96725 29.8475,22.53525 28.3315,23.67225 C26.815,24.80925 26.0585,26.22325 26.0585,27.91325 C26.0585,29.19625 26.539,30.37675 27.501,31.45475 C28.463,32.53425 30.8375,34.00575 34.628,35.87075 L43.372,40.24275 C52.582,44.78975 58.907,49.42425 62.3475,54.14625 C65.7865,58.86825 67.5065,64.40775 67.5065,70.76025 C67.5065,79.21375 64.4025,86.26825 58.194,91.92175 C51.9855,97.57675 43.6635,100.40425 33.2285,100.40425 C19.354,100.40425 8.2775,94.98225 -2.13162821e-14,84.13925 L14.6905,68.13725 C17.489,71.40275 20.768,74.03975 24.528,76.05125 C28.2885,78.06225 31.6245,79.06775 34.54,79.06775 C37.6885,79.06775 40.2245,78.31075 42.148,76.79425 C44.072,75.27875 45.0335,73.53025 45.0335,71.54775 C45.0335,67.87475 41.5645,64.28975 34.628,60.79225 L26.583,56.76975 C11.193,49.01725 3.498,39.31075 3.498,27.65125 C3.498,20.13075 6.397,13.70375 12.199,8.36975 C17.9985,3.03575 25.416,0.36875 34.453,0.36875 Z M186.8261,0.36865 C192.5321,0.36865 197.8876,1.44815 202.8951,3.60415 C207.9031,5.76165 212.5321,8.99715 216.7836,13.31065 L216.7836,2.81765 L240.6561,2.81765 L240.6561,97.95565 L216.7836,97.95565 L216.7836,87.89965 C212.1246,92.33065 207.4516,95.52215 202.7651,97.47465 C198.0776,99.42715 192.9976,100.40415 187.5241,100.40415 C175.2386,100.40415 164.6116,95.63865 155.6446,86.10715 C146.6776,76.57565 142.1946,64.72715 142.1946,50.56115 C142.1946,35.87065 146.5326,23.83315 155.2086,14.44715 C163.8846,5.06215 174.4231,0.36865 186.8261,0.36865 Z M306.98205,0.3688 C316.42605,0.3688 324.90805,2.2488 332.42805,6.0088 C339.94855,9.7688 346.09755,15.1178 350.87855,22.0548 L331.00555,32.9853 C327.27005,29.0803 323.57855,26.3693 319.93055,24.8528 C316.28255,23.3378 312.00755,22.5793 307.10505,22.5793 C298.17505,22.5793 290.95155,25.2423 285.43655,30.5683 C279.92105,35.8938 277.16355,42.7188 277.16355,51.0408 C277.16355,59.1318 279.81855,65.7393 285.13105,70.8603 C290.44155,75.9828 297.41655,78.5433 306.05455,78.5433 C316.73605,78.5433 325.05305,74.9003 331.00555,67.6123 L349.82905,80.5008 C339.62705,93.7708 325.22755,100.4043 306.63255,100.4043 C289.90055,100.4043 276.79905,95.4498 267.32655,85.5388 C257.85255,75.6288 253.11705,64.0278 253.11705,50.7363 C253.11705,41.5258 255.41905,33.0438 260.02505,25.2903 C264.62955,17.5378 271.05605,11.4458 279.30605,7.0143 C287.55455,2.5853 296.78005,0.3688 306.98205,0.3688 Z M488.65855,0.36875 C494.83655,0.36875 500.65155,1.72425 506.10305,4.43475 C511.55355,7.14575 516.17255,11.03675 519.96305,16.10825 L505.18505,30.88675 C499.18055,24.94025 493.73005,21.96725 488.83305,21.96725 C486.15105,21.96725 484.05255,22.53525 482.53705,23.67225 C481.02055,24.80925 480.26355,26.22325 480.26355,27.91325 C480.26355,29.19625 480.74455,30.37675 481.70605,31.45475 C482.66805,32.53425 485.04305,34.00575 488.83305,35.87075 L497.57755,40.24275 C506.78755,44.78975 513.11205,49.42425 516.55255,54.14625 C519.99205,58.86825 521.71155,64.40775 521.71155,70.76025 C521.71155,79.21375 518.60755,86.26825 512.39905,91.92175 C506.19055,97.57675 497.86855,100.40425 487.43355,100.40425 C473.55905,100.40425 462.48255,94.98225 454.20555,84.13925 L468.89605,68.13725 C471.69405,71.40275 474.97355,74.03975 478.73355,76.05125 C482.49355,78.06225 485.82955,79.06775 488.74505,79.06775 C491.89355,79.06775 494.42955,78.31075 496.35305,76.79425 C498.27705,75.27875 499.23905,73.53025 499.23905,71.54775 C499.23905,67.87475 495.76955,64.28975 488.83305,60.79225 L480.78805,56.76975 C465.39805,49.01725 457.70305,39.31075 457.70305,27.65125 C457.70305,20.13075 460.60255,13.70375 466.40405,8.36975 C472.20355,3.03575 479.62105,0.36875 488.65855,0.36875 Z M714.0126,0.369 C728.9936,0.369 741.1771,5.1645 750.5636,14.7535 C759.9486,24.343 764.6416,37.0075 764.6416,52.747 L764.6416,52.747 L764.5546,57.2945 L708.8776,57.2945 L708.8776,38.494 L740.6821,38.494 C739.1056,33.19 735.9961,28.875 731.3531,25.5525 C726.7106,22.2295 721.3246,20.5685 715.1926,20.5685 C708.5356,20.5685 702.6966,22.4345 697.6756,26.1645 C694.5216,28.4965 691.6016,32.607 688.9161,38.494 C688.9161,38.494 688.1081,40.848 687.8291,41.915 C686.5611,46.762 686.5991,52.0355 687.9436,57.737 C689.1051,64.2925 692.0381,69.5235 696.7421,73.4275 C701.5516,77.4215 707.6861,79.4175 715.1491,79.4175 C724.0681,79.4175 731.7331,76.2995 738.1466,70.061 L738.1466,70.061 L758.2586,79.505 C753.2441,86.618 747.2406,91.8785 740.2451,95.2885 C733.2496,98.6985 724.9426,100.404 715.3241,100.404 C700.3996,100.404 688.2451,95.697 678.8601,86.282 C669.4731,76.8685 664.7816,65.077 664.7816,50.9105 C664.7816,36.3955 669.4596,24.343 678.8161,14.7535 C688.1726,5.1645 699.9041,0.369 714.0126,0.369 Z M825.7914,0.369 C840.7724,0.369 852.9564,5.1645 862.3424,14.7535 C871.7279,24.343 876.4204,37.0075 876.4204,52.747 L876.4204,52.747 L876.3339,57.2945 L820.6569,57.2945 L820.6569,38.494 L852.4614,38.494 C850.8844,33.19 847.7749,28.875 843.1319,25.5525 C838.4894,22.2295 833.1039,20.5685 826.9719,20.5685 C820.3149,20.5685 814.4754,22.4345 809.4544,26.1645 C806.3009,28.4965 803.3809,32.607 800.6949,38.494 C800.6949,38.494 799.8874,40.848 799.6079,41.915 C798.3399,46.762 798.3779,52.0355 799.7224,57.737 C800.8844,64.2925 803.8174,69.5235 808.5214,73.4275 C813.3309,77.4215 819.4649,79.4175 826.9279,79.4175 C835.8474,79.4175 843.5124,76.2995 849.9254,70.061 L849.9254,70.061 L870.0374,79.505 C865.0229,86.618 859.0199,91.8785 852.0239,95.2885 C845.0289,98.6985 836.7214,100.404 827.1029,100.404 C812.1784,100.404 800.0239,95.697 790.6389,86.282 C781.2524,76.8685 776.5609,65.077 776.5609,50.9105 C776.5609,36.3955 781.2384,24.343 790.5954,14.7535 C799.9514,5.1645 811.6829,0.369 825.7914,0.369 Z M553.38475,2.8175 L573.59825,56.3325 L581.95525,32.984 L570.60925,2.8174 L593.27125,2.8174 L613.48475,56.3324 L632.63825,2.8174 L656.15625,2.8174 L621.44175,97.9554 L606.39125,97.9554 L593.78525,64.439 L581.55525,97.9555 L566.50475,97.9555 L530.72275,2.8175 L553.38475,2.8175 Z M191.6891,22.40465 C184.3096,22.40465 178.1801,25.01415 173.3001,30.23065 C168.4196,35.44865 165.9791,42.13815 165.9791,50.29915 C165.9791,58.51865 168.4616,65.28165 173.4296,70.58565 C178.3976,75.89115 184.5121,78.54315 191.7751,78.54315 C199.2706,78.54315 205.4871,75.93515 210.4251,70.71715 C215.3631,65.50015 217.8331,58.66515 217.8331,50.21165 C217.8331,41.93415 215.3631,35.23015 210.4251,30.09965 C205.4871,24.97015 199.2416,22.40465 191.6891,22.40465 Z M115.88,1.30015 L115.88,16.53515 L130.046,16.53515 L130.046,37.08415 L115.88,37.08415 L115.89,75.06865 L92.008,75.06865 L92.008,37.08415 L79.7665,37.08415 L79.773,16.37765 L92.008,16.53515 L92.008,1.30015 L115.88,1.30015 Z" id="形状结合" fill="#000000"></path>
                <path d="M92.007,75.06845 L92.007,99.47295 C105.185,99.12295 115.89,88.33095 115.89,75.06845 L92.007,75.06845 Z" id="Fill-23" fill="#F3B632"></path>
            </g>
        </g>
    </g>
</svg>